<?xml version="1.0" standalone="no"?>
<!DOCTYPE svg PUBLIC "-//W3C//DTD SVG 20010904//EN"
 "http://www.w3.org/TR/2001/REC-SVG-20010904/DTD/svg10.dtd">
<svg version="1.0" xmlns="http://www.w3.org/2000/svg"
 width="266.000000pt" height="266.000000pt" viewBox="0 0 266.000000 266.000000"
 preserveAspectRatio="xMidYMid meet">

<g transform="translate(0.000000,266.000000) scale(0.100000,-0.100000)"
fill="#000000" stroke="none">
<path d="M1929 2589 c-39 -23 -61 -57 -159 -242 -34 -64 -70 -122 -81 -127
-15 -9 -37 -3 -107 29 -115 51 -187 65 -315 59 -171 -8 -305 -67 -427 -188
-124 -123 -180 -247 -188 -420 -7 -161 35 -294 130 -410 93 -114 92 -134 -3
-261 -97 -127 -129 -197 -129 -275 0 -75 25 -117 90 -154 l45 -25 312 3 c332
3 449 -6 514 -38 58 -30 79 -64 79 -126 0 -45 -4 -57 -31 -83 -56 -57 -108
-64 -403 -58 -144 2 -306 10 -361 17 -124 16 -168 9 -212 -35 -27 -27 -33 -40
-33 -77 0 -35 6 -49 28 -70 15 -14 38 -29 52 -34 35 -11 841 -13 920 -2 188
25 311 161 312 343 0 89 -25 148 -92 219 -60 63 -152 110 -255 127 -45 7 -183
11 -382 11 -336 -1 -341 -1 -328 51 9 35 135 199 167 216 23 14 32 13 81 -2
242 -76 484 -20 658 154 63 62 85 93 122 170 53 110 67 169 67 282 0 136 -44
265 -129 377 -42 56 -46 66 -35 95 4 9 71 67 149 130 124 98 145 119 160 159
15 39 16 53 6 85 -31 104 -135 150 -222 100z m-402 -471 c79 -29 162 -112 193
-193 36 -93 32 -221 -9 -344 -113 -335 -360 -490 -604 -378 -202 92 -264 333
-150 585 68 150 198 285 322 333 66 26 175 25 248 -3z"/>
</g>
</svg>
